<?xml version="1.0" encoding="UTF-8" standalone="no"?>
<!DOCTYPE svg PUBLIC "-//W3C//DTD SVG 1.1//EN"
 "http://www.w3.org/Graphics/SVG/1.1/DTD/svg11.dtd">
<!-- Generated by graphviz version 12.1.1 (20240910.0053)
 -->
<!-- Title: G Pages: 1 -->
<svg width="1670pt" height="1185pt"
 viewBox="0.00 0.00 1669.55 1185.13" xmlns="http://www.w3.org/2000/svg" xmlns:xlink="http://www.w3.org/1999/xlink">
<g id="graph0" class="graph" transform="scale(1 1) rotate(0) translate(4 1181.13)">
<title>G</title><style>.edge>path:hover{stroke-width:8}</style>
<polygon fill="white" stroke="none" points="-4,4 -4,-1181.13 1665.55,-1181.13 1665.55,4 -4,4"/>
<!-- pandas -->
<g id="node1" class="node">
<title>pandas</title><style>.edge>path:hover{stroke-width:8}</style>
<ellipse fill="#950303" stroke="black" cx="1155.67" cy="-422.13" rx="28.11" ry="18"/>
<text text-anchor="middle" x="1155.67" y="-418.26" font-family="Helvetica,sans-Serif" font-size="10.00" fill="#ffffff">pandas</text>
</g>
<!-- tools_py -->
<g id="node30" class="node">
<title>tools_py</title><style>.edge>path:hover{stroke-width:8}</style>
<ellipse fill="#569f56" stroke="black" cx="1176.67" cy="-18" rx="29.88" ry="18"/>
<text text-anchor="middle" x="1176.67" y="-14.12" font-family="Helvetica,sans-Serif" font-size="10.00" fill="#000000">tools.py</text>
</g>
<!-- pandas&#45;&gt;tools_py -->
<g id="edge1" class="edge">
<title>pandas&#45;&gt;tools_py</title><style>.edge>path:hover{stroke-width:8}</style>
<path fill="none" stroke="black" d="M1176.67,-72C1172.19,-64.76 1170.95,-55.84 1171.19,-47.4"/>
<polygon fill="#950303" stroke="black" points="1174.67,-47.81 1172.18,-37.51 1167.7,-47.11 1174.67,-47.81"/>
<path fill="none" stroke="black" d="M1157.71,-403.97C1160.18,-388.91 1165.5,-367.01 1176.67,-351.13"/>
<path fill="none" stroke="black" d="M1176.67,-349.13C1194.32,-324.04 1192.8,-99.1 1176.67,-73"/>
</g>
<!-- tqdm_std -->
<g id="node37" class="node">
<title>tqdm_std</title><style>.edge>path:hover{stroke-width:8}</style>
<ellipse fill="#2323c8" stroke="black" cx="1374.67" cy="-278.13" rx="32.1" ry="18"/>
<text text-anchor="middle" x="1374.67" y="-274.26" font-family="Helvetica,sans-Serif" font-size="10.00" fill="#ffffff">tqdm.std</text>
</g>
<!-- pandas&#45;&gt;tqdm_std -->
<g id="edge2" class="edge">
<title>pandas&#45;&gt;tqdm_std</title><style>.edge>path:hover{stroke-width:8}</style>
<path fill="none" stroke="black" d="M1176.67,-349.13C1211.37,-299.78 1283.94,-284.98 1330.92,-280.69"/>
<polygon fill="#950303" stroke="black" points="1331.07,-284.19 1340.77,-279.93 1330.53,-277.21 1331.07,-284.19"/>
</g>
<!-- pandas__config -->
<g id="node2" class="node">
<title>pandas__config</title><style>.edge>path:hover{stroke-width:8}</style>
<ellipse fill="#d02424" stroke="black" cx="192.67" cy="-1087.13" rx="48.52" ry="18"/>
<text text-anchor="middle" x="192.67" y="-1083.25" font-family="Helvetica,sans-Serif" font-size="10.00" fill="#ffffff">pandas._config</text>
</g>
<!-- pandas__config&#45;&gt;pandas -->
<g id="edge3" class="edge">
<title>pandas__config&#45;&gt;pandas</title><style>.edge>path:hover{stroke-width:8}</style>
<path fill="none" stroke="black" d="M120.67,-893.61C124.67,-848.9 104.36,-834.43 120.67,-792.61"/>
<path fill="none" stroke="black" d="M180.62,-1069.54C158.59,-1037.35 114.57,-963.58 120.67,-895.61"/>
</g>
<!-- pandas_core_config_init -->
<g id="node12" class="node">
<title>pandas_core_config_init</title><style>.edge>path:hover{stroke-width:8}</style>
<ellipse fill="#883a3a" stroke="black" cx="408.67" cy="-577.66" rx="42.6" ry="29.52"/>
<text text-anchor="middle" x="408.67" y="-585.03" font-family="Helvetica,sans-Serif" font-size="10.00" fill="#ffffff">pandas.</text>
<text text-anchor="middle" x="408.67" y="-573.78" font-family="Helvetica,sans-Serif" font-size="10.00" fill="#ffffff">core.</text>
<text text-anchor="middle" x="408.67" y="-562.53" font-family="Helvetica,sans-Serif" font-size="10.00" fill="#ffffff">config_init</text>
</g>
<!-- pandas__config&#45;&gt;pandas_core_config_init -->
<g id="edge4" class="edge">
<title>pandas__config&#45;&gt;pandas_core_config_init</title><style>.edge>path:hover{stroke-width:8}</style>
<path fill="none" stroke="black" d="M376.67,-679.65C386.78,-660.42 394.37,-637.43 399.62,-618.24"/>
<polygon fill="#d02424" stroke="black" points="402.99,-619.17 402.13,-608.61 396.22,-617.41 402.99,-619.17"/>
<path fill="none" stroke="black" d="M120.67,-893.61C123.72,-860.26 151.85,-775.45 177.67,-754.13 240.58,-702.19 292.42,-767.11 357.67,-718.13 372.28,-707.16 368.16,-697.83 376.67,-681.65"/>
</g>
<!-- pandas_errors -->
<g id="node17" class="node">
<title>pandas_errors</title><style>.edge>path:hover{stroke-width:8}</style>
<ellipse fill="#b03a3a" stroke="black" cx="229.67" cy="-1015.13" rx="44.53" ry="18"/>
<text text-anchor="middle" x="229.67" y="-1011.25" font-family="Helvetica,sans-Serif" font-size="10.00" fill="#ffffff">pandas.errors</text>
</g>
<!-- pandas__config&#45;&gt;pandas_errors -->
<g id="edge5" class="edge">
<title>pandas__config&#45;&gt;pandas_errors</title><style>.edge>path:hover{stroke-width:8}</style>
<path fill="none" stroke="black" d="M201.62,-1069.18C205.8,-1061.27 210.88,-1051.67 215.56,-1042.81"/>
<polygon fill="#d02424" stroke="black" points="218.51,-1044.73 220.08,-1034.25 212.32,-1041.46 218.51,-1044.73"/>
</g>
<!-- pandas__version -->
<g id="node3" class="node">
<title>pandas__version</title><style>.edge>path:hover{stroke-width:8}</style>
<ellipse fill="#c24747" stroke="black" cx="910.67" cy="-791.61" rx="37.3" ry="21.57"/>
<text text-anchor="middle" x="910.67" y="-793.36" font-family="Helvetica,sans-Serif" font-size="10.00" fill="#ffffff">pandas.</text>
<text text-anchor="middle" x="910.67" y="-782.11" font-family="Helvetica,sans-Serif" font-size="10.00" fill="#ffffff">_version</text>
</g>
<!-- pandas__version&#45;&gt;pandas -->
<g id="edge6" class="edge">
<title>pandas__version&#45;&gt;pandas</title><style>.edge>path:hover{stroke-width:8}</style>
<path fill="none" stroke="black" d="M905.97,-770.02C900.87,-748.04 892.27,-712.23 883.67,-681.65"/>
<path fill="none" stroke="black" d="M883.67,-679.65C872.56,-640.21 851.95,-639.43 826.67,-607.18 817.27,-595.19 815.13,-591.93 807.67,-578.66"/>
</g>
<!-- pandas_util__print_versions -->
<g id="node28" class="node">
<title>pandas_util__print_versions</title><style>.edge>path:hover{stroke-width:8}</style>
<ellipse fill="#9d4343" stroke="black" cx="893.67" cy="-577.66" rx="57.98" ry="29.52"/>
<text text-anchor="middle" x="893.67" y="-585.03" font-family="Helvetica,sans-Serif" font-size="10.00" fill="#ffffff">pandas.</text>
<text text-anchor="middle" x="893.67" y="-573.78" font-family="Helvetica,sans-Serif" font-size="10.00" fill="#ffffff">util.</text>
<text text-anchor="middle" x="893.67" y="-562.53" font-family="Helvetica,sans-Serif" font-size="10.00" fill="#ffffff">_print_versions</text>
</g>
<!-- pandas__version&#45;&gt;pandas_util__print_versions -->
<g id="edge7" class="edge">
<title>pandas__version&#45;&gt;pandas_util__print_versions</title><style>.edge>path:hover{stroke-width:8}</style>
<path fill="none" stroke="black" d="M883.67,-679.65C878.09,-659.85 879.68,-637.1 883.06,-618.21"/>
<polygon fill="#c24747" stroke="black" points="886.48,-618.99 885.05,-608.49 879.62,-617.59 886.48,-618.99"/>
</g>
<!-- pandas__version_meson -->
<g id="node4" class="node">
<title>pandas__version_meson</title><style>.edge>path:hover{stroke-width:8}</style>
<ellipse fill="#c24747" stroke="black" cx="1065.67" cy="-791.61" rx="61.7" ry="21.57"/>
<text text-anchor="middle" x="1065.67" y="-793.36" font-family="Helvetica,sans-Serif" font-size="10.00" fill="#ffffff">pandas.</text>
<text text-anchor="middle" x="1065.67" y="-782.11" font-family="Helvetica,sans-Serif" font-size="10.00" fill="#ffffff">_version_meson</text>
</g>
<!-- pandas__version_meson&#45;&gt;pandas -->
<g id="edge8" class="edge">
<title>pandas__version_meson&#45;&gt;pandas</title><style>.edge>path:hover{stroke-width:8}</style>
<path fill="none" stroke="black" d="M1118.67,-493.13C1124.26,-477.86 1132.59,-461.74 1139.93,-448.83"/>
<polygon fill="#c24747" stroke="black" points="1142.75,-450.95 1144.77,-440.55 1136.71,-447.42 1142.75,-450.95"/>
<path fill="none" stroke="black" d="M996.67,-679.65C987.74,-663.7 1006.68,-659.09 1015.67,-643.18 1040,-600.09 1044.67,-588.24 1073.67,-548.13 1091.77,-523.09 1108.04,-524.15 1118.67,-495.13"/>
</g>
<!-- pandas__version_meson&#45;&gt;pandas_util__print_versions -->
<g id="edge9" class="edge">
<title>pandas__version_meson&#45;&gt;pandas_util__print_versions</title><style>.edge>path:hover{stroke-width:8}</style>
<path fill="none" stroke="black" d="M996.67,-679.65C987.19,-662.72 985.66,-657.59 972.67,-643.18 961.69,-631.01 948.33,-619.21 935.74,-609.1"/>
<polygon fill="#c24747" stroke="black" points="937.97,-606.4 927.94,-602.99 933.65,-611.91 937.97,-606.4"/>
<path fill="none" stroke="black" d="M1050.75,-770.43C1040.43,-756.14 1026.63,-736.33 1015.67,-718.13 1006.24,-702.47 1005.59,-697.61 996.67,-681.65"/>
</g>
<!-- pandas_api -->
<g id="node5" class="node">
<title>pandas_api</title><style>.edge>path:hover{stroke-width:8}</style>
<ellipse fill="#b83d3d" stroke="black" cx="1053.67" cy="-494.13" rx="37.42" ry="18"/>
<text text-anchor="middle" x="1053.67" y="-490.26" font-family="Helvetica,sans-Serif" font-size="10.00" fill="#ffffff">pandas.api</text>
</g>
<!-- pandas_api&#45;&gt;pandas -->
<g id="edge10" class="edge">
<title>pandas_api&#45;&gt;pandas</title><style>.edge>path:hover{stroke-width:8}</style>
<path fill="none" stroke="black" d="M1074.31,-478.97C1089.68,-468.42 1110.85,-453.89 1127.74,-442.3"/>
<polygon fill="#b83d3d" stroke="black" points="1129.6,-445.27 1135.87,-436.72 1125.64,-439.49 1129.6,-445.27"/>
</g>
<!-- pandas_arrays -->
<g id="node6" class="node">
<title>pandas_arrays</title><style>.edge>path:hover{stroke-width:8}</style>
<ellipse fill="#a44646" stroke="black" cx="82.67" cy="-1015.13" rx="45.86" ry="18"/>
<text text-anchor="middle" x="82.67" y="-1011.25" font-family="Helvetica,sans-Serif" font-size="10.00" fill="#ffffff">pandas.arrays</text>
</g>
<!-- pandas_arrays&#45;&gt;pandas -->
<g id="edge11" class="edge">
<title>pandas_arrays&#45;&gt;pandas</title><style>.edge>path:hover{stroke-width:8}</style>
<path fill="none" stroke="black" d="M80.15,-997.04C79.21,-986.47 79.1,-972.74 82.67,-961.13"/>
</g>
<!-- pandas_compat -->
<g id="node7" class="node">
<title>pandas_compat</title><style>.edge>path:hover{stroke-width:8}</style>
<ellipse fill="#dd1818" stroke="black" cx="845.67" cy="-1015.13" rx="48.96" ry="18"/>
<text text-anchor="middle" x="845.67" y="-1011.25" font-family="Helvetica,sans-Serif" font-size="10.00" fill="#ffffff">pandas.compat</text>
</g>
<!-- pandas_compat&#45;&gt;pandas -->
<g id="edge12" class="edge">
<title>pandas_compat&#45;&gt;pandas</title><style>.edge>path:hover{stroke-width:8}</style>
<path fill="none" stroke="black" d="M845.67,-960.13C833.12,-937.8 873.36,-943.01 890.67,-924.13 900.96,-912.9 904.43,-909.91 909.67,-895.61"/>
<path fill="none" stroke="black" d="M909.67,-893.61C927.95,-843.71 840.33,-845.48 845.67,-792.61"/>
</g>
<!-- pandas_core_dtypes_dtypes -->
<g id="node14" class="node">
<title>pandas_core_dtypes_dtypes</title><style>.edge>path:hover{stroke-width:8}</style>
<ellipse fill="#993333" stroke="black" cx="222.67" cy="-791.61" rx="35.71" ry="37.48"/>
<text text-anchor="middle" x="222.67" y="-804.61" font-family="Helvetica,sans-Serif" font-size="10.00" fill="#ffffff">pandas.</text>
<text text-anchor="middle" x="222.67" y="-793.36" font-family="Helvetica,sans-Serif" font-size="10.00" fill="#ffffff">core.</text>
<text text-anchor="middle" x="222.67" y="-782.11" font-family="Helvetica,sans-Serif" font-size="10.00" fill="#ffffff">dtypes.</text>
<text text-anchor="middle" x="222.67" y="-770.86" font-family="Helvetica,sans-Serif" font-size="10.00" fill="#ffffff">dtypes</text>
</g>
<!-- pandas_compat&#45;&gt;pandas_core_dtypes_dtypes -->
<g id="edge13" class="edge">
<title>pandas_compat&#45;&gt;pandas_core_dtypes_dtypes</title><style>.edge>path:hover{stroke-width:8}</style>
<path fill="none" stroke="black" d="M849.78,-996.81C851.42,-985.89 851.7,-971.88 845.67,-961.13"/>
<path fill="none" stroke="black" d="M845.67,-960.13C805.21,-888.1 546.52,-966.6 475.67,-924.13 462.6,-916.3 470.86,-901.13 456.67,-895.61"/>
</g>
<!-- pandas_compat&#45;&gt;pandas_util__print_versions -->
<g id="edge14" class="edge">
<title>pandas_compat&#45;&gt;pandas_util__print_versions</title><style>.edge>path:hover{stroke-width:8}</style>
<path fill="none" stroke="black" d="M909.67,-893.61C923.15,-860.79 945.68,-862.82 956.67,-829.08 966.98,-797.41 962.38,-786.95 956.67,-754.13 948.14,-705.15 927.16,-651.77 911.75,-616.91"/>
<polygon fill="#dd1818" stroke="black" points="915.07,-615.77 907.78,-608.09 908.69,-618.64 915.07,-615.77"/>
</g>
<!-- pandas_util__tester -->
<g id="node29" class="node">
<title>pandas_util__tester</title><style>.edge>path:hover{stroke-width:8}</style>
<ellipse fill="#ac4949" stroke="black" cx="845.67" cy="-894.61" rx="35.71" ry="29.52"/>
<text text-anchor="middle" x="845.67" y="-901.98" font-family="Helvetica,sans-Serif" font-size="10.00" fill="#ffffff">pandas.</text>
<text text-anchor="middle" x="845.67" y="-890.73" font-family="Helvetica,sans-Serif" font-size="10.00" fill="#ffffff">util.</text>
<text text-anchor="middle" x="845.67" y="-879.48" font-family="Helvetica,sans-Serif" font-size="10.00" fill="#ffffff">_tester</text>
</g>
<!-- pandas_compat&#45;&gt;pandas_util__tester -->
<g id="edge15" class="edge">
<title>pandas_compat&#45;&gt;pandas_util__tester</title><style>.edge>path:hover{stroke-width:8}</style>
<path fill="none" stroke="black" d="M845.67,-960.13C841.52,-952.74 839.82,-944.09 839.49,-935.56"/>
<polygon fill="#dd1818" stroke="black" points="842.98,-935.74 839.74,-925.66 835.99,-935.56 842.98,-935.74"/>
</g>
<!-- pandas_core -->
<g id="node8" class="node">
<title>pandas_core</title><style>.edge>path:hover{stroke-width:8}</style>
<ellipse fill="#f91010" stroke="black" cx="412.67" cy="-1159.13" rx="40.97" ry="18"/>
<text text-anchor="middle" x="412.67" y="-1155.25" font-family="Helvetica,sans-Serif" font-size="10.00" fill="#ffffff">pandas.core</text>
</g>
<!-- pandas_core&#45;&gt;pandas -->
<g id="edge16" class="edge">
<title>pandas_core&#45;&gt;pandas</title><style>.edge>path:hover{stroke-width:8}</style>
<path fill="none" stroke="black" d="M82.67,-960.13C105.1,-887.15 92.94,-863.74 120.67,-792.61"/>
<path fill="none" stroke="black" d="M371.3,-1158.7C274.82,-1158.92 40.65,-1152.71 8.67,-1088.13"/>
<path fill="none" stroke="black" d="M222.67,-679.65C241.6,-626.48 261.31,-620.07 299.67,-578.66"/>
<path fill="none" stroke="black" d="M299.67,-576.66C359.34,-512.22 451.96,-578.47 479.67,-495.13"/>
<path fill="none" stroke="black" d="M120.67,-790.61C126.6,-774.29 124.52,-768.22 134.67,-754.13 164.28,-713.01 205.67,-729.39 222.67,-681.65"/>
<path fill="none" stroke="black" d="M8.67,-1086.13C-9.29,-1049.88 4.8,-1030.49 27.67,-997.13 44.18,-973.03 71.2,-988 82.67,-961.13"/>
<path fill="none" stroke="black" d="M479.67,-493.13C499.92,-432.22 974.29,-424.28 1116.03,-423.27"/>
<polygon fill="#f91010" stroke="black" points="1115.68,-426.78 1125.66,-423.21 1115.64,-419.78 1115.68,-426.78"/>
</g>
<!-- pandas_core&#45;&gt;pandas_arrays -->
<g id="edge17" class="edge">
<title>pandas_core&#45;&gt;pandas_arrays</title><style>.edge>path:hover{stroke-width:8}</style>
<path fill="none" stroke="black" d="M8.67,-1086.13C-1.93,-1064.73 19.23,-1046.43 41.61,-1033.91"/>
<polygon fill="#f91010" stroke="black" points="42.93,-1037.17 50.18,-1029.45 39.69,-1030.97 42.93,-1037.17"/>
</g>
<!-- pandas_util -->
<g id="node27" class="node">
<title>pandas_util</title><style>.edge>path:hover{stroke-width:8}</style>
<ellipse fill="#d31717" stroke="black" cx="412.67" cy="-1087.13" rx="37.42" ry="18"/>
<text text-anchor="middle" x="412.67" y="-1083.25" font-family="Helvetica,sans-Serif" font-size="10.00" fill="#ffffff">pandas.util</text>
</g>
<!-- pandas_core&#45;&gt;pandas_util -->
<g id="edge18" class="edge">
<title>pandas_core&#45;&gt;pandas_util</title><style>.edge>path:hover{stroke-width:8}</style>
<path fill="none" stroke="black" d="M412.67,-1140.82C412.67,-1133.53 412.67,-1124.85 412.67,-1116.66"/>
<polygon fill="#f91010" stroke="black" points="416.17,-1116.74 412.67,-1106.74 409.17,-1116.74 416.17,-1116.74"/>
</g>
<!-- pandas_core&#45;&gt;tqdm_std -->
<g id="edge19" class="edge">
<title>pandas_core&#45;&gt;tqdm_std</title><style>.edge>path:hover{stroke-width:8}</style>
<path fill="none" stroke="black" d="M453.61,-1156.6C639.46,-1149.12 1394.67,-1112.81 1394.67,-1016.13 1394.67,-1016.13 1394.67,-1016.13 1394.67,-421.13 1394.67,-381.27 1386.84,-335.72 1380.98,-307.19"/>
<polygon fill="#f91010" stroke="black" points="1384.43,-306.61 1378.93,-297.55 1377.59,-308.06 1384.43,-306.61"/>
</g>
<!-- pandas_core_api -->
<g id="node9" class="node">
<title>pandas_core_api</title><style>.edge>path:hover{stroke-width:8}</style>
<ellipse fill="#883a3a" stroke="black" cx="543.67" cy="-577.66" rx="35.71" ry="29.52"/>
<text text-anchor="middle" x="543.67" y="-585.03" font-family="Helvetica,sans-Serif" font-size="10.00" fill="#ffffff">pandas.</text>
<text text-anchor="middle" x="543.67" y="-573.78" font-family="Helvetica,sans-Serif" font-size="10.00" fill="#ffffff">core.</text>
<text text-anchor="middle" x="543.67" y="-562.53" font-family="Helvetica,sans-Serif" font-size="10.00" fill="#ffffff">api</text>
</g>
<!-- pandas_core_api&#45;&gt;pandas -->
<g id="edge20" class="edge">
<title>pandas_core_api&#45;&gt;pandas</title><style>.edge>path:hover{stroke-width:8}</style>
<path fill="none" stroke="black" d="M515.13,-559.2C494.42,-544.06 471.38,-520.63 479.67,-495.13"/>
</g>
<!-- pandas_core_computation -->
<g id="node10" class="node">
<title>pandas_core_computation</title><style>.edge>path:hover{stroke-width:8}</style>
<ellipse fill="#ce3b3b" stroke="black" cx="299.67" cy="-680.65" rx="48.97" ry="29.52"/>
<text text-anchor="middle" x="299.67" y="-688.03" font-family="Helvetica,sans-Serif" font-size="10.00" fill="#ffffff">pandas.</text>
<text text-anchor="middle" x="299.67" y="-676.78" font-family="Helvetica,sans-Serif" font-size="10.00" fill="#ffffff">core.</text>
<text text-anchor="middle" x="299.67" y="-665.53" font-family="Helvetica,sans-Serif" font-size="10.00" fill="#ffffff">computation</text>
</g>
<!-- pandas_core_computation&#45;&gt;pandas -->
<g id="edge21" class="edge">
<title>pandas_core_computation&#45;&gt;pandas</title><style>.edge>path:hover{stroke-width:8}</style>
<path fill="none" stroke="black" d="M290.36,-651.52C284.83,-628.89 281.91,-597.82 299.67,-578.66"/>
</g>
<!-- pandas_core_computation&#45;&gt;pandas_core_config_init -->
<g id="edge22" class="edge">
<title>pandas_core_computation&#45;&gt;pandas_core_config_init</title><style>.edge>path:hover{stroke-width:8}</style>
<path fill="none" stroke="black" d="M325.77,-655.46C340.68,-641.65 359.53,-624.19 375.48,-609.41"/>
<polygon fill="#ce3b3b" stroke="black" points="377.45,-612.35 382.41,-602.98 372.7,-607.21 377.45,-612.35"/>
</g>
<!-- pandas_core_computation_api -->
<g id="node11" class="node">
<title>pandas_core_computation_api</title><style>.edge>path:hover{stroke-width:8}</style>
<ellipse fill="#a44646" stroke="black" cx="1075.67" cy="-680.65" rx="51.09" ry="37.48"/>
<text text-anchor="middle" x="1075.67" y="-693.65" font-family="Helvetica,sans-Serif" font-size="10.00" fill="#ffffff">pandas.</text>
<text text-anchor="middle" x="1075.67" y="-682.4" font-family="Helvetica,sans-Serif" font-size="10.00" fill="#ffffff">core.</text>
<text text-anchor="middle" x="1075.67" y="-671.15" font-family="Helvetica,sans-Serif" font-size="10.00" fill="#ffffff">computation.</text>
<text text-anchor="middle" x="1075.67" y="-659.9" font-family="Helvetica,sans-Serif" font-size="10.00" fill="#ffffff">api</text>
</g>
<!-- pandas_core_computation_api&#45;&gt;pandas -->
<g id="edge23" class="edge">
<title>pandas_core_computation_api&#45;&gt;pandas</title><style>.edge>path:hover{stroke-width:8}</style>
<path fill="none" stroke="black" d="M1182.67,-576.66C1178.65,-530.77 1102.82,-538.39 1118.67,-495.13"/>
<path fill="none" stroke="black" d="M1112.69,-654.55C1144.29,-631.67 1184.41,-598.5 1182.67,-578.66"/>
</g>
<!-- pandas_core_config_init&#45;&gt;pandas -->
<g id="edge24" class="edge">
<title>pandas_core_config_init&#45;&gt;pandas</title><style>.edge>path:hover{stroke-width:8}</style>
<path fill="none" stroke="black" d="M436.38,-555.05C452.81,-540.27 471.89,-519.05 479.67,-495.13"/>
</g>
<!-- pandas_core_dtypes -->
<g id="node13" class="node">
<title>pandas_core_dtypes</title><style>.edge>path:hover{stroke-width:8}</style>
<ellipse fill="#db2f2f" stroke="black" cx="440.67" cy="-680.65" rx="35.71" ry="29.52"/>
<text text-anchor="middle" x="440.67" y="-688.03" font-family="Helvetica,sans-Serif" font-size="10.00" fill="#ffffff">pandas.</text>
<text text-anchor="middle" x="440.67" y="-676.78" font-family="Helvetica,sans-Serif" font-size="10.00" fill="#ffffff">core.</text>
<text text-anchor="middle" x="440.67" y="-665.53" font-family="Helvetica,sans-Serif" font-size="10.00" fill="#ffffff">dtypes</text>
</g>
<!-- pandas_core_dtypes&#45;&gt;pandas -->
<g id="edge25" class="edge">
<title>pandas_core_dtypes&#45;&gt;pandas</title><style>.edge>path:hover{stroke-width:8}</style>
<path fill="none" stroke="black" d="M449.12,-651.6C452.97,-638.22 457.38,-621.96 460.67,-607.18 471.62,-557.87 464.06,-543.17 479.67,-495.13"/>
</g>
<!-- pandas_core_dtypes&#45;&gt;pandas_core_api -->
<g id="edge26" class="edge">
<title>pandas_core_dtypes&#45;&gt;pandas_core_api</title><style>.edge>path:hover{stroke-width:8}</style>
<path fill="none" stroke="black" d="M463.27,-657.49C477.89,-643.15 497.11,-624.3 513.1,-608.63"/>
<polygon fill="#db2f2f" stroke="black" points="515.34,-611.33 520.03,-601.83 510.44,-606.33 515.34,-611.33"/>
</g>
<!-- pandas_core_dtypes&#45;&gt;pandas_core_config_init -->
<g id="edge27" class="edge">
<title>pandas_core_dtypes&#45;&gt;pandas_core_config_init</title><style>.edge>path:hover{stroke-width:8}</style>
<path fill="none" stroke="black" d="M431.84,-651.79C428.47,-641.17 424.57,-628.87 420.95,-617.41"/>
<polygon fill="#db2f2f" stroke="black" points="424.39,-616.7 418.03,-608.22 417.72,-618.81 424.39,-616.7"/>
</g>
<!-- pandas_core_dtypes_dtypes&#45;&gt;pandas -->
<g id="edge28" class="edge">
<title>pandas_core_dtypes_dtypes&#45;&gt;pandas</title><style>.edge>path:hover{stroke-width:8}</style>
<path fill="none" stroke="black" d="M216.67,-754.24C214.55,-732.55 214.42,-704.82 222.67,-681.65"/>
</g>
<!-- pandas_core_dtypes_dtypes&#45;&gt;pandas_core_api -->
<g id="edge29" class="edge">
<title>pandas_core_dtypes_dtypes&#45;&gt;pandas_core_api</title><style>.edge>path:hover{stroke-width:8}</style>
<path fill="none" stroke="black" d="M504.67,-679.65C520.53,-662.57 530.17,-638.33 535.9,-617.88"/>
<polygon fill="#993333" stroke="black" points="539.23,-619 538.32,-608.45 532.45,-617.26 539.23,-619"/>
<path fill="none" stroke="black" d="M248.75,-765.76C254.61,-761.28 261.06,-757.1 267.67,-754.13 357.24,-713.87 406.15,-775.76 485.67,-718.13 500.47,-707.4 492.23,-695.05 504.67,-681.65"/>
</g>
<!-- pandas_core_reshape -->
<g id="node15" class="node">
<title>pandas_core_reshape</title><style>.edge>path:hover{stroke-width:8}</style>
<ellipse fill="#c24747" stroke="black" cx="1118.67" cy="-577.66" rx="35.71" ry="29.52"/>
<text text-anchor="middle" x="1118.67" y="-585.03" font-family="Helvetica,sans-Serif" font-size="10.00" fill="#ffffff">pandas.</text>
<text text-anchor="middle" x="1118.67" y="-573.78" font-family="Helvetica,sans-Serif" font-size="10.00" fill="#ffffff">core.</text>
<text text-anchor="middle" x="1118.67" y="-562.53" font-family="Helvetica,sans-Serif" font-size="10.00" fill="#ffffff">reshape</text>
</g>
<!-- pandas_core_reshape&#45;&gt;pandas -->
<g id="edge30" class="edge">
<title>pandas_core_reshape&#45;&gt;pandas</title><style>.edge>path:hover{stroke-width:8}</style>
<path fill="none" stroke="black" d="M1113.92,-547.89C1112.44,-531.89 1112.53,-511.88 1118.67,-495.13"/>
</g>
<!-- pandas_core_reshape_api -->
<g id="node16" class="node">
<title>pandas_core_reshape_api</title><style>.edge>path:hover{stroke-width:8}</style>
<ellipse fill="#a44646" stroke="black" cx="1182.67" cy="-680.65" rx="37.83" ry="37.48"/>
<text text-anchor="middle" x="1182.67" y="-693.65" font-family="Helvetica,sans-Serif" font-size="10.00" fill="#ffffff">pandas.</text>
<text text-anchor="middle" x="1182.67" y="-682.4" font-family="Helvetica,sans-Serif" font-size="10.00" fill="#ffffff">core.</text>
<text text-anchor="middle" x="1182.67" y="-671.15" font-family="Helvetica,sans-Serif" font-size="10.00" fill="#ffffff">reshape.</text>
<text text-anchor="middle" x="1182.67" y="-659.9" font-family="Helvetica,sans-Serif" font-size="10.00" fill="#ffffff">api</text>
</g>
<!-- pandas_core_reshape_api&#45;&gt;pandas -->
<g id="edge31" class="edge">
<title>pandas_core_reshape_api&#45;&gt;pandas</title><style>.edge>path:hover{stroke-width:8}</style>
<path fill="none" stroke="black" d="M1184.2,-643.12C1184.62,-623.9 1184.53,-599.97 1182.67,-578.66"/>
</g>
<!-- pandas_errors&#45;&gt;pandas -->
<g id="edge32" class="edge">
<title>pandas_errors&#45;&gt;pandas</title><style>.edge>path:hover{stroke-width:8}</style>
<path fill="none" stroke="black" d="M158.67,-893.61C161.68,-845.74 103.25,-837.29 120.67,-792.61"/>
<path fill="none" stroke="black" d="M211.67,-998.26C189.79,-977.04 156.05,-937.26 158.67,-895.61"/>
</g>
<!-- pandas_errors&#45;&gt;pandas_core_dtypes_dtypes -->
<g id="edge33" class="edge">
<title>pandas_errors&#45;&gt;pandas_core_dtypes_dtypes</title><style>.edge>path:hover{stroke-width:8}</style>
<path fill="none" stroke="black" d="M158.67,-893.61C160.24,-868.62 174.54,-844.75 189.22,-826.5"/>
<polygon fill="#b03a3a" stroke="black" points="191.86,-828.8 195.66,-818.91 186.52,-824.27 191.86,-828.8"/>
</g>
<!-- pandas_io -->
<g id="node18" class="node">
<title>pandas_io</title><style>.edge>path:hover{stroke-width:8}</style>
<ellipse fill="#df0b0b" stroke="black" cx="310.67" cy="-791.61" rx="34.32" ry="18"/>
<text text-anchor="middle" x="310.67" y="-787.73" font-family="Helvetica,sans-Serif" font-size="10.00" fill="#ffffff">pandas.io</text>
</g>
<!-- pandas_io&#45;&gt;pandas -->
<g id="edge34" class="edge">
<title>pandas_io&#45;&gt;pandas</title><style>.edge>path:hover{stroke-width:8}</style>
<path fill="none" stroke="black" d="M293.27,-775.8C265.51,-751.33 215.04,-703.07 222.67,-681.65"/>
</g>
<!-- pandas_io&#45;&gt;pandas_core_api -->
<g id="edge35" class="edge">
<title>pandas_io&#45;&gt;pandas_core_api</title><style>.edge>path:hover{stroke-width:8}</style>
<path fill="none" stroke="black" d="M325.38,-775.3C333.18,-767.96 343.27,-759.61 353.67,-754.13 407.47,-725.79 438.32,-756.29 485.67,-718.13 499.9,-706.66 492.23,-695.05 504.67,-681.65"/>
</g>
<!-- pandas_io&#45;&gt;pandas_core_config_init -->
<g id="edge36" class="edge">
<title>pandas_io&#45;&gt;pandas_core_config_init</title><style>.edge>path:hover{stroke-width:8}</style>
<path fill="none" stroke="black" d="M321.95,-774.19C331.77,-759.68 346.19,-737.82 357.67,-718.13 366.87,-702.34 368.16,-697.83 376.67,-681.65"/>
</g>
<!-- pandas_io_api -->
<g id="node19" class="node">
<title>pandas_io_api</title><style>.edge>path:hover{stroke-width:8}</style>
<ellipse fill="#a44646" stroke="black" cx="495.67" cy="-791.61" rx="43.64" ry="18"/>
<text text-anchor="middle" x="495.67" y="-787.73" font-family="Helvetica,sans-Serif" font-size="10.00" fill="#ffffff">pandas.io.api</text>
</g>
<!-- pandas_io_api&#45;&gt;pandas -->
<g id="edge37" class="edge">
<title>pandas_io_api&#45;&gt;pandas</title><style>.edge>path:hover{stroke-width:8}</style>
<path fill="none" stroke="black" d="M502.87,-773.45C513.65,-749.69 536.15,-706.87 567.67,-681.65"/>
</g>
<!-- pandas_io_json -->
<g id="node20" class="node">
<title>pandas_io_json</title><style>.edge>path:hover{stroke-width:8}</style>
<ellipse fill="#c82323" stroke="black" cx="531.67" cy="-894.61" rx="46.74" ry="18"/>
<text text-anchor="middle" x="531.67" y="-890.73" font-family="Helvetica,sans-Serif" font-size="10.00" fill="#ffffff">pandas.io.json</text>
</g>
<!-- pandas_io_json&#45;&gt;pandas -->
<g id="edge38" class="edge">
<title>pandas_io_json&#45;&gt;pandas</title><style>.edge>path:hover{stroke-width:8}</style>
<path fill="none" stroke="black" d="M536.9,-876.22C540.63,-863.31 545.51,-845.23 548.67,-829.08 555,-796.66 541.87,-702.29 567.67,-681.65"/>
</g>
<!-- pandas_io_json&#45;&gt;pandas_io -->
<g id="edge39" class="edge">
<title>pandas_io_json&#45;&gt;pandas_io</title><style>.edge>path:hover{stroke-width:8}</style>
<path fill="none" stroke="black" d="M504.08,-879.72C493.74,-874.77 481.79,-869.37 470.67,-865.08 419.9,-845.51 401.39,-855.21 353.67,-829.08 346.86,-825.36 340.14,-820.44 334.12,-815.43"/>
<polygon fill="#c82323" stroke="black" points="336.8,-813.13 326.98,-809.14 332.17,-818.38 336.8,-813.13"/>
</g>
<!-- pandas_io_json&#45;&gt;pandas_io_api -->
<g id="edge40" class="edge">
<title>pandas_io_json&#45;&gt;pandas_io_api</title><style>.edge>path:hover{stroke-width:8}</style>
<path fill="none" stroke="black" d="M525.56,-876.47C520.1,-861.16 512.01,-838.45 505.62,-820.52"/>
<polygon fill="#c82323" stroke="black" points="508.97,-819.49 502.31,-811.25 502.37,-821.84 508.97,-819.49"/>
</g>
<!-- pandas_io_json__normalize -->
<g id="node21" class="node">
<title>pandas_io_json__normalize</title><style>.edge>path:hover{stroke-width:8}</style>
<ellipse fill="#b34c4c" stroke="black" cx="1283.67" cy="-680.65" rx="44.72" ry="37.48"/>
<text text-anchor="middle" x="1283.67" y="-693.65" font-family="Helvetica,sans-Serif" font-size="10.00" fill="#ffffff">pandas.</text>
<text text-anchor="middle" x="1283.67" y="-682.4" font-family="Helvetica,sans-Serif" font-size="10.00" fill="#ffffff">io.</text>
<text text-anchor="middle" x="1283.67" y="-671.15" font-family="Helvetica,sans-Serif" font-size="10.00" fill="#ffffff">json.</text>
<text text-anchor="middle" x="1283.67" y="-659.9" font-family="Helvetica,sans-Serif" font-size="10.00" fill="#ffffff">_normalize</text>
</g>
<!-- pandas_io_json__normalize&#45;&gt;pandas -->
<g id="edge41" class="edge">
<title>pandas_io_json__normalize&#45;&gt;pandas</title><style>.edge>path:hover{stroke-width:8}</style>
<path fill="none" stroke="black" d="M1356.67,-576.66C1370.75,-494.77 1254.2,-450.06 1192.43,-432.31"/>
<polygon fill="#b34c4c" stroke="black" points="1193.61,-429 1183.04,-429.71 1191.75,-435.75 1193.61,-429"/>
<path fill="none" stroke="black" d="M1316.38,-654.47C1336.46,-635.89 1358.11,-608.69 1356.67,-578.66"/>
</g>
<!-- pandas_plotting -->
<g id="node22" class="node">
<title>pandas_plotting</title><style>.edge>path:hover{stroke-width:8}</style>
<ellipse fill="#c43131" stroke="black" cx="398.67" cy="-791.61" rx="35.71" ry="21.57"/>
<text text-anchor="middle" x="398.67" y="-793.36" font-family="Helvetica,sans-Serif" font-size="10.00" fill="#ffffff">pandas.</text>
<text text-anchor="middle" x="398.67" y="-782.11" font-family="Helvetica,sans-Serif" font-size="10.00" fill="#ffffff">plotting</text>
</g>
<!-- pandas_plotting&#45;&gt;pandas -->
<g id="edge42" class="edge">
<title>pandas_plotting&#45;&gt;pandas</title><style>.edge>path:hover{stroke-width:8}</style>
<path fill="none" stroke="black" d="M417.58,-773.16C425.07,-766.74 433.96,-759.68 442.67,-754.13 474.19,-734.05 486.63,-737.38 518.67,-718.13 541.94,-704.14 546.47,-698.61 567.67,-681.65"/>
<path fill="none" stroke="black" d="M567.67,-679.65C658.03,-607.36 864.4,-679.52 807.67,-578.66"/>
<path fill="none" stroke="black" d="M807.67,-576.66C770.85,-511.19 455.97,-566.4 479.67,-495.13"/>
</g>
<!-- pandas_plotting&#45;&gt;pandas_core_config_init -->
<g id="edge43" class="edge">
<title>pandas_plotting&#45;&gt;pandas_core_config_init</title><style>.edge>path:hover{stroke-width:8}</style>
<path fill="none" stroke="black" d="M387.31,-771.01C375.77,-748.3 361.58,-710.35 376.67,-681.65"/>
</g>
<!-- pandas_testing -->
<g id="node23" class="node">
<title>pandas_testing</title><style>.edge>path:hover{stroke-width:8}</style>
<ellipse fill="#b34c4c" stroke="black" cx="1193.67" cy="-494.13" rx="47.19" ry="18"/>
<text text-anchor="middle" x="1193.67" y="-490.26" font-family="Helvetica,sans-Serif" font-size="10.00" fill="#ffffff">pandas.testing</text>
</g>
<!-- pandas_testing&#45;&gt;pandas -->
<g id="edge44" class="edge">
<title>pandas_testing&#45;&gt;pandas</title><style>.edge>path:hover{stroke-width:8}</style>
<path fill="none" stroke="black" d="M1184.47,-476.19C1180.11,-468.16 1174.81,-458.39 1169.94,-449.43"/>
<polygon fill="#b34c4c" stroke="black" points="1173.09,-447.89 1165.24,-440.77 1166.94,-451.23 1173.09,-447.89"/>
</g>
<!-- pandas_tseries -->
<g id="node24" class="node">
<title>pandas_tseries</title><style>.edge>path:hover{stroke-width:8}</style>
<ellipse fill="#c82323" stroke="black" cx="680.67" cy="-791.61" rx="47.19" ry="18"/>
<text text-anchor="middle" x="680.67" y="-787.73" font-family="Helvetica,sans-Serif" font-size="10.00" fill="#ffffff">pandas.tseries</text>
</g>
<!-- pandas_tseries&#45;&gt;pandas -->
<g id="edge45" class="edge">
<title>pandas_tseries&#45;&gt;pandas</title><style>.edge>path:hover{stroke-width:8}</style>
<path fill="none" stroke="black" d="M807.67,-679.65C806.42,-634.78 829.67,-617.78 807.67,-578.66"/>
</g>
<!-- pandas_tseries&#45;&gt;pandas_core_api -->
<g id="edge46" class="edge">
<title>pandas_tseries&#45;&gt;pandas_core_api</title><style>.edge>path:hover{stroke-width:8}</style>
<path fill="none" stroke="black" d="M807.67,-679.65C806.39,-633.64 665.18,-600.82 589.84,-586.57"/>
<polygon fill="#c82323" stroke="black" points="590.74,-583.18 580.27,-584.8 589.47,-590.07 590.74,-583.18"/>
<path fill="none" stroke="black" d="M702,-775.16C738.28,-748.5 808.05,-695.41 807.67,-681.65"/>
</g>
<!-- pandas_tseries_api -->
<g id="node25" class="node">
<title>pandas_tseries_api</title><style>.edge>path:hover{stroke-width:8}</style>
<ellipse fill="#a44646" stroke="black" cx="781.67" cy="-791.61" rx="35.71" ry="29.52"/>
<text text-anchor="middle" x="781.67" y="-798.98" font-family="Helvetica,sans-Serif" font-size="10.00" fill="#ffffff">pandas.</text>
<text text-anchor="middle" x="781.67" y="-787.73" font-family="Helvetica,sans-Serif" font-size="10.00" fill="#ffffff">tseries.</text>
<text text-anchor="middle" x="781.67" y="-776.48" font-family="Helvetica,sans-Serif" font-size="10.00" fill="#ffffff">api</text>
</g>
<!-- pandas_tseries_api&#45;&gt;pandas -->
<g id="edge47" class="edge">
<title>pandas_tseries_api&#45;&gt;pandas</title><style>.edge>path:hover{stroke-width:8}</style>
<path fill="none" stroke="black" d="M804.63,-768.58C823.48,-747.98 846.89,-715.42 845.67,-681.65"/>
<path fill="none" stroke="black" d="M845.67,-679.65C843.92,-631.73 831.18,-620.46 807.67,-578.66"/>
</g>
<!-- pandas_tseries_offsets -->
<g id="node26" class="node">
<title>pandas_tseries_offsets</title><style>.edge>path:hover{stroke-width:8}</style>
<ellipse fill="#d92626" stroke="black" cx="718.67" cy="-894.61" rx="35.71" ry="29.52"/>
<text text-anchor="middle" x="718.67" y="-901.98" font-family="Helvetica,sans-Serif" font-size="10.00" fill="#ffffff">pandas.</text>
<text text-anchor="middle" x="718.67" y="-890.73" font-family="Helvetica,sans-Serif" font-size="10.00" fill="#ffffff">tseries.</text>
<text text-anchor="middle" x="718.67" y="-879.48" font-family="Helvetica,sans-Serif" font-size="10.00" fill="#ffffff">offsets</text>
</g>
<!-- pandas_tseries_offsets&#45;&gt;pandas -->
<g id="edge48" class="edge">
<title>pandas_tseries_offsets&#45;&gt;pandas</title><style>.edge>path:hover{stroke-width:8}</style>
<path fill="none" stroke="black" d="M751.69,-882.7C787.71,-868.48 840.91,-839.69 845.67,-792.61"/>
<path fill="none" stroke="black" d="M845.67,-790.61C850.53,-742.43 847.43,-730.05 845.67,-681.65"/>
</g>
<!-- pandas_tseries_offsets&#45;&gt;pandas_core_api -->
<g id="edge49" class="edge">
<title>pandas_tseries_offsets&#45;&gt;pandas_core_api</title><style>.edge>path:hover{stroke-width:8}</style>
<path fill="none" stroke="black" d="M688.02,-879.31C667.42,-868.26 641.12,-851.14 624.67,-829.08 576.78,-764.9 556.5,-671.24 548.47,-618.53"/>
<polygon fill="#d92626" stroke="black" points="551.95,-618.2 547.06,-608.8 545.03,-619.2 551.95,-618.2"/>
</g>
<!-- pandas_tseries_offsets&#45;&gt;pandas_tseries -->
<g id="edge50" class="edge">
<title>pandas_tseries_offsets&#45;&gt;pandas_tseries</title><style>.edge>path:hover{stroke-width:8}</style>
<path fill="none" stroke="black" d="M708.28,-866.01C702.94,-851.81 696.45,-834.56 691.1,-820.34"/>
<polygon fill="#d92626" stroke="black" points="694.43,-819.25 687.63,-811.13 687.88,-821.72 694.43,-819.25"/>
</g>
<!-- pandas_tseries_offsets&#45;&gt;pandas_tseries_api -->
<g id="edge51" class="edge">
<title>pandas_tseries_offsets&#45;&gt;pandas_tseries_api</title><style>.edge>path:hover{stroke-width:8}</style>
<path fill="none" stroke="black" d="M734.73,-867.86C742.28,-855.75 751.41,-841.12 759.6,-827.99"/>
<polygon fill="#d92626" stroke="black" points="762.51,-829.93 764.83,-819.59 756.57,-826.22 762.51,-829.93"/>
</g>
<!-- pandas_util&#45;&gt;pandas -->
<g id="edge52" class="edge">
<title>pandas_util&#45;&gt;pandas</title><style>.edge>path:hover{stroke-width:8}</style>
<path fill="none" stroke="black" d="M450.25,-1085.18C625.83,-1080.27 1356.67,-1054.22 1356.67,-961.13 1356.67,-961.13 1356.67,-961.13 1356.67,-790.61 1356.67,-696.41 1361.18,-672.75 1356.67,-578.66"/>
</g>
<!-- pandas_util&#45;&gt;pandas_arrays -->
<g id="edge53" class="edge">
<title>pandas_util&#45;&gt;pandas_arrays</title><style>.edge>path:hover{stroke-width:8}</style>
<path fill="none" stroke="black" d="M378.9,-1078.96C320.78,-1066.64 201.53,-1041.34 133.39,-1026.89"/>
<polygon fill="#d31717" stroke="black" points="134.49,-1023.54 123.98,-1024.89 133.04,-1030.39 134.49,-1023.54"/>
</g>
<!-- pandas_util&#45;&gt;pandas_core_dtypes_dtypes -->
<g id="edge54" class="edge">
<title>pandas_util&#45;&gt;pandas_core_dtypes_dtypes</title><style>.edge>path:hover{stroke-width:8}</style>
<path fill="none" stroke="black" d="M420.48,-1069.26C440.43,-1025.05 489.41,-908.34 456.67,-895.61"/>
<path fill="none" stroke="black" d="M456.67,-893.61C373.89,-861.57 345.34,-872.03 267.67,-829.08 264.5,-827.33 261.33,-825.35 258.23,-823.24"/>
<polygon fill="#d31717" stroke="black" points="260.53,-820.59 250.39,-817.51 256.4,-826.24 260.53,-820.59"/>
</g>
<!-- pandas_util&#45;&gt;pandas_errors -->
<g id="edge55" class="edge">
<title>pandas_util&#45;&gt;pandas_errors</title><style>.edge>path:hover{stroke-width:8}</style>
<path fill="none" stroke="black" d="M384.07,-1075.19C353.96,-1063.67 306.22,-1045.41 271.8,-1032.24"/>
<polygon fill="#d31717" stroke="black" points="273.13,-1029 262.54,-1028.7 270.63,-1035.54 273.13,-1029"/>
</g>
<!-- pandas_util__print_versions&#45;&gt;pandas -->
<g id="edge56" class="edge">
<title>pandas_util__print_versions&#45;&gt;pandas</title><style>.edge>path:hover{stroke-width:8}</style>
<path fill="none" stroke="black" d="M850.41,-557.72C841.06,-554.13 831.14,-550.71 821.67,-548.13 747.45,-527.96 455.9,-568.28 479.67,-495.13"/>
</g>
<!-- pandas_util__tester&#45;&gt;pandas -->
<g id="edge57" class="edge">
<title>pandas_util__tester&#45;&gt;pandas</title><style>.edge>path:hover{stroke-width:8}</style>
<path fill="none" stroke="black" d="M844.13,-864.8C843.43,-844.55 843.22,-816.86 845.67,-792.61"/>
</g>
<!-- tqdm -->
<g id="node31" class="node">
<title>tqdm</title><style>.edge>path:hover{stroke-width:8}</style>
<ellipse fill="#303091" stroke="black" cx="1394.67" cy="-127" rx="27" ry="18"/>
<text text-anchor="middle" x="1394.67" y="-123.12" font-family="Helvetica,sans-Serif" font-size="10.00" fill="#ffffff">tqdm</text>
</g>
<!-- tqdm&#45;&gt;tools_py -->
<g id="edge58" class="edge">
<title>tqdm&#45;&gt;tools_py</title><style>.edge>path:hover{stroke-width:8}</style>
<path fill="none" stroke="black" d="M1367.66,-123.98C1313.86,-119.29 1196.73,-105.47 1176.67,-73"/>
</g>
<!-- tqdm__monitor -->
<g id="node32" class="node">
<title>tqdm__monitor</title><style>.edge>path:hover{stroke-width:8}</style>
<ellipse fill="#4747c2" stroke="black" cx="1592.67" cy="-350.13" rx="46.3" ry="18"/>
<text text-anchor="middle" x="1592.67" y="-346.26" font-family="Helvetica,sans-Serif" font-size="10.00" fill="#ffffff">tqdm._monitor</text>
</g>
<!-- tqdm__monitor&#45;&gt;tqdm -->
<g id="edge59" class="edge">
<title>tqdm__monitor&#45;&gt;tqdm</title><style>.edge>path:hover{stroke-width:8}</style>
<path fill="none" stroke="black" d="M1608.96,-332.9C1633.96,-305.93 1676.78,-250.23 1655.67,-203.57"/>
</g>
<!-- tqdm__monitor&#45;&gt;tqdm_std -->
<g id="edge60" class="edge">
<title>tqdm__monitor&#45;&gt;tqdm_std</title><style>.edge>path:hover{stroke-width:8}</style>
<path fill="none" stroke="black" d="M1557.64,-337.89C1518.04,-325.17 1453.76,-304.53 1412.88,-291.4"/>
<polygon fill="#4747c2" stroke="black" points="1414.05,-288.1 1403.46,-288.38 1411.91,-294.77 1414.05,-288.1"/>
</g>
<!-- tqdm__tqdm_pandas -->
<g id="node33" class="node">
<title>tqdm__tqdm_pandas</title><style>.edge>path:hover{stroke-width:8}</style>
<ellipse fill="#4c4cb3" stroke="black" cx="1455.67" cy="-202.57" rx="56.39" ry="21.57"/>
<text text-anchor="middle" x="1455.67" y="-204.32" font-family="Helvetica,sans-Serif" font-size="10.00" fill="#ffffff">tqdm.</text>
<text text-anchor="middle" x="1455.67" y="-193.07" font-family="Helvetica,sans-Serif" font-size="10.00" fill="#ffffff">_tqdm_pandas</text>
</g>
<!-- tqdm__tqdm_pandas&#45;&gt;tqdm -->
<g id="edge61" class="edge">
<title>tqdm__tqdm_pandas&#45;&gt;tqdm</title><style>.edge>path:hover{stroke-width:8}</style>
<path fill="none" stroke="black" d="M1439.32,-181.85C1431.72,-172.69 1422.62,-161.72 1414.63,-152.07"/>
<polygon fill="#4c4cb3" stroke="black" points="1417.43,-149.96 1408.35,-144.5 1412.04,-154.43 1417.43,-149.96"/>
</g>
<!-- tqdm_cli -->
<g id="node34" class="node">
<title>tqdm_cli</title><style>.edge>path:hover{stroke-width:8}</style>
<ellipse fill="#4949ac" stroke="black" cx="1597.67" cy="-202.57" rx="29.88" ry="18"/>
<text text-anchor="middle" x="1597.67" y="-198.69" font-family="Helvetica,sans-Serif" font-size="10.00" fill="#ffffff">tqdm.cli</text>
</g>
<!-- tqdm_cli&#45;&gt;tqdm -->
<g id="edge62" class="edge">
<title>tqdm_cli&#45;&gt;tqdm</title><style>.edge>path:hover{stroke-width:8}</style>
<path fill="none" stroke="black" d="M1575.05,-190.38C1568.25,-187.19 1560.72,-183.81 1553.67,-181 1511.84,-164.32 1462.48,-148.44 1429.98,-138.49"/>
<polygon fill="#4949ac" stroke="black" points="1431.26,-135.22 1420.67,-135.66 1429.22,-141.91 1431.26,-135.22"/>
</g>
<!-- tqdm_gui -->
<g id="node35" class="node">
<title>tqdm_gui</title><style>.edge>path:hover{stroke-width:8}</style>
<ellipse fill="#4c4cb3" stroke="black" cx="1236.67" cy="-202.57" rx="31.66" ry="18"/>
<text text-anchor="middle" x="1236.67" y="-198.69" font-family="Helvetica,sans-Serif" font-size="10.00" fill="#ffffff">tqdm.gui</text>
</g>
<!-- tqdm_gui&#45;&gt;tqdm -->
<g id="edge63" class="edge">
<title>tqdm_gui&#45;&gt;tqdm</title><style>.edge>path:hover{stroke-width:8}</style>
<path fill="none" stroke="black" d="M1259.41,-189.61C1265.02,-186.73 1271.04,-183.71 1276.67,-181 1305.27,-167.23 1338.26,-152.51 1362.08,-142.09"/>
<polygon fill="#4c4cb3" stroke="black" points="1363.17,-145.43 1370.93,-138.22 1360.37,-139.01 1363.17,-145.43"/>
</g>
<!-- tqdm_notebook -->
<g id="node36" class="node">
<title>tqdm_notebook</title><style>.edge>path:hover{stroke-width:8}</style>
<ellipse fill="#4c4cb3" stroke="black" cx="1333.67" cy="-202.57" rx="47.63" ry="18"/>
<text text-anchor="middle" x="1333.67" y="-198.69" font-family="Helvetica,sans-Serif" font-size="10.00" fill="#ffffff">tqdm.notebook</text>
</g>
<!-- tqdm_notebook&#45;&gt;tqdm -->
<g id="edge64" class="edge">
<title>tqdm_notebook&#45;&gt;tqdm</title><style>.edge>path:hover{stroke-width:8}</style>
<path fill="none" stroke="black" d="M1347.51,-184.87C1355.64,-175.07 1366.04,-162.52 1375.01,-151.7"/>
<polygon fill="#4c4cb3" stroke="black" points="1377.47,-154.22 1381.16,-144.29 1372.08,-149.76 1377.47,-154.22"/>
</g>
<!-- tqdm_std&#45;&gt;tqdm -->
<g id="edge65" class="edge">
<title>tqdm_std&#45;&gt;tqdm</title><style>.edge>path:hover{stroke-width:8}</style>
<path fill="none" stroke="black" d="M1406.9,-275.65C1441.54,-272.12 1495.05,-260.68 1520.67,-224.13 1531.67,-208.43 1531.27,-196.97 1520.67,-181 1501.25,-151.77 1462.22,-138.62 1432.72,-132.73"/>
<polygon fill="#2323c8" stroke="black" points="1433.49,-129.32 1423.03,-131.02 1432.27,-136.21 1433.49,-129.32"/>
</g>
<!-- tqdm_std&#45;&gt;tqdm_cli -->
<g id="edge66" class="edge">
<title>tqdm_std&#45;&gt;tqdm_cli</title><style>.edge>path:hover{stroke-width:8}</style>
<path fill="none" stroke="black" d="M1403.63,-269.99C1439.39,-260.83 1501.85,-243.79 1553.67,-224.13 1557.32,-222.75 1561.1,-221.19 1564.84,-219.56"/>
<polygon fill="#2323c8" stroke="black" points="1566.07,-222.84 1573.73,-215.53 1563.18,-216.47 1566.07,-222.84"/>
</g>
<!-- tqdm_std&#45;&gt;tqdm_gui -->
<g id="edge67" class="edge">
<title>tqdm_std&#45;&gt;tqdm_gui</title><style>.edge>path:hover{stroke-width:8}</style>
<path fill="none" stroke="black" d="M1351.88,-264.99C1329.27,-252.93 1294.41,-234.35 1268.96,-220.78"/>
<polygon fill="#2323c8" stroke="black" points="1270.84,-217.82 1260.37,-216.2 1267.54,-223.99 1270.84,-217.82"/>
</g>
<!-- tqdm_std&#45;&gt;tqdm_notebook -->
<g id="edge68" class="edge">
<title>tqdm_std&#45;&gt;tqdm_notebook</title><style>.edge>path:hover{stroke-width:8}</style>
<path fill="none" stroke="black" d="M1365.36,-260.44C1360.42,-251.57 1354.22,-240.44 1348.62,-230.39"/>
<polygon fill="#2323c8" stroke="black" points="1351.74,-228.8 1343.81,-221.77 1345.62,-232.21 1351.74,-228.8"/>
</g>
<!-- tqdm_version -->
<g id="node38" class="node">
<title>tqdm_version</title><style>.edge>path:hover{stroke-width:8}</style>
<ellipse fill="#4747c2" stroke="black" cx="1584.67" cy="-278.13" rx="42.75" ry="18"/>
<text text-anchor="middle" x="1584.67" y="-274.26" font-family="Helvetica,sans-Serif" font-size="10.00" fill="#ffffff">tqdm.version</text>
</g>
<!-- tqdm_version&#45;&gt;tqdm -->
<g id="edge69" class="edge">
<title>tqdm_version&#45;&gt;tqdm</title><style>.edge>path:hover{stroke-width:8}</style>
<path fill="none" stroke="black" d="M1655.67,-201.57C1650.54,-190.23 1647.46,-187.19 1636.67,-181 1571.71,-143.79 1483.22,-132.68 1433.22,-129.38"/>
<polygon fill="#4747c2" stroke="black" points="1433.67,-125.9 1423.48,-128.81 1433.26,-132.88 1433.67,-125.9"/>
<path fill="none" stroke="black" d="M1613,-264.28C1637.47,-251.15 1667.23,-229.12 1655.67,-203.57"/>
</g>
<!-- tqdm_version&#45;&gt;tqdm_cli -->
<g id="edge70" class="edge">
<title>tqdm_version&#45;&gt;tqdm_cli</title><style>.edge>path:hover{stroke-width:8}</style>
<path fill="none" stroke="black" d="M1587.75,-259.7C1589.2,-251.45 1590.98,-241.39 1592.63,-232.08"/>
<polygon fill="#4747c2" stroke="black" points="1596.05,-232.82 1594.34,-222.37 1589.16,-231.6 1596.05,-232.82"/>
</g>
</g>
</svg>
